// this file was generated from 2plpsqrmidresnoise.exs using vonred's exs2sfz.py. Trickster goddess incoming.

<group>lokey=0 hikey=26 pitch_keycenter=24 pitch_keytrack=1
	<region> lovel=001 hivel=021 amp_velcurve_021=1 offset=412 end=670646 sample=../Sounds/Squares/2plpsqrmidresnoise/xp2016D0-21-MLRH.aif
	<region> lovel=022 hivel=042 amp_velcurve_042=1 offset=391 end=672440 sample=../Sounds/Squares/2plpsqrmidresnoise/xp2016D0-42-VJSK.aif
	<region> lovel=043 hivel=064 amp_velcurve_064=1 offset=485 end=671594 sample=../Sounds/Squares/2plpsqrmidresnoise/xp2016D0-64-6LZU.aif
	<region> lovel=065 hivel=085 amp_velcurve_085=1 offset=569 end=666874 sample=../Sounds/Squares/2plpsqrmidresnoise/xp2016D0-85-FVB2.aif
	<region> lovel=086 hivel=106 amp_velcurve_106=1 offset=469 end=665339 sample=../Sounds/Squares/2plpsqrmidresnoise/xp2016D0-106-K5OT.aif
	<region> lovel=107 hivel=127 amp_velcurve_127=1 offset=375 end=671834 sample=../Sounds/Squares/2plpsqrmidresnoise/xp2016D0-127-RJC9.aif
<group>lokey=27 hikey=32 pitch_keycenter=30 pitch_keytrack=1
	<region> lovel=001 hivel=021 amp_velcurve_021=1 offset=378 end=665837 sample=../Sounds/Squares/2plpsqrmidresnoise/xp2016G#0-21-8JIA.aif
	<region> lovel=022 hivel=042 amp_velcurve_042=1 offset=551 end=665031 sample=../Sounds/Squares/2plpsqrmidresnoise/xp2016G#0-42-32AF.aif
	<region> lovel=043 hivel=064 amp_velcurve_064=1 offset=351 end=664047 sample=../Sounds/Squares/2plpsqrmidresnoise/xp2016G#0-64-KWOL.aif
	<region> lovel=065 hivel=085 amp_velcurve_085=1 offset=645 end=664439 sample=../Sounds/Squares/2plpsqrmidresnoise/xp2016G#0-85-AKUO.aif
	<region> lovel=086 hivel=106 amp_velcurve_106=1 offset=375 end=665531 sample=../Sounds/Squares/2plpsqrmidresnoise/xp2016G#0-106-4PRW.aif
	<region> lovel=107 hivel=127 amp_velcurve_127=1 offset=484 end=670425 sample=../Sounds/Squares/2plpsqrmidresnoise/xp2016G#0-127-0XXY.aif
<group>lokey=33 hikey=38 pitch_keycenter=36 pitch_keytrack=1
	<region> lovel=001 hivel=021 amp_velcurve_021=1 offset=387 end=665848 sample=../Sounds/Squares/2plpsqrmidresnoise/xp2016D1-21-4P7N.aif
	<region> lovel=022 hivel=042 amp_velcurve_042=1 offset=401 end=664702 sample=../Sounds/Squares/2plpsqrmidresnoise/xp2016D1-42-YDFG.aif
	<region> lovel=043 hivel=064 amp_velcurve_064=1 offset=410 sample=../Sounds/Squares/2plpsqrmidresnoise/xp2016D1-64-GAU9.aif
	<region> lovel=065 hivel=085 amp_velcurve_085=1 offset=457 end=664844 sample=../Sounds/Squares/2plpsqrmidresnoise/xp2016D1-85-4DTK.aif
	<region> lovel=086 hivel=106 amp_velcurve_106=1 offset=353 end=665456 sample=../Sounds/Squares/2plpsqrmidresnoise/xp2016D1-106-PRIG.aif
	<region> lovel=107 hivel=127 amp_velcurve_127=1 offset=345 end=666227 sample=../Sounds/Squares/2plpsqrmidresnoise/xp2016D1-127-KT19.aif
<group>lokey=39 hikey=44 pitch_keycenter=42 pitch_keytrack=1
	<region> lovel=001 hivel=021 amp_velcurve_021=1 offset=354 end=665080 sample=../Sounds/Squares/2plpsqrmidresnoise/xp2016G#1-21-N20E.aif
	<region> lovel=022 hivel=042 amp_velcurve_042=1 offset=352 end=665443 sample=../Sounds/Squares/2plpsqrmidresnoise/xp2016G#1-42-PVT1.aif
	<region> lovel=043 hivel=064 amp_velcurve_064=1 offset=502 end=665908 sample=../Sounds/Squares/2plpsqrmidresnoise/xp2016G#1-64-BD8P.aif
	<region> lovel=065 hivel=085 amp_velcurve_085=1 offset=564 end=664432 sample=../Sounds/Squares/2plpsqrmidresnoise/xp2016G#1-85-9T3N.aif
	<region> lovel=086 hivel=106 amp_velcurve_106=1 offset=371 end=663023 sample=../Sounds/Squares/2plpsqrmidresnoise/xp2016G#1-106-W8PS.aif
	<region> lovel=107 hivel=127 amp_velcurve_127=1 offset=395 end=665192 sample=../Sounds/Squares/2plpsqrmidresnoise/xp2016G#1-127-ASPE.aif
<group>lokey=45 hikey=50 pitch_keycenter=48 pitch_keytrack=1
	<region> lovel=001 hivel=021 amp_velcurve_021=1 offset=441 end=665600 sample=../Sounds/Squares/2plpsqrmidresnoise/xp2016D2-21-WBWV.aif
	<region> lovel=022 hivel=042 amp_velcurve_042=1 offset=486 sample=../Sounds/Squares/2plpsqrmidresnoise/xp2016D2-42-7CED.aif
	<region> lovel=043 hivel=064 amp_velcurve_064=1 offset=404 sample=../Sounds/Squares/2plpsqrmidresnoise/xp2016D2-64-OK4P.aif
	<region> lovel=065 hivel=085 amp_velcurve_085=1 offset=543 end=665788 sample=../Sounds/Squares/2plpsqrmidresnoise/xp2016D2-85-H9VT.aif
	<region> lovel=086 hivel=106 amp_velcurve_106=1 offset=383 end=665205 sample=../Sounds/Squares/2plpsqrmidresnoise/xp2016D2-106-HIDG.aif
	<region> lovel=107 hivel=127 amp_velcurve_127=1 offset=379 end=665435 sample=../Sounds/Squares/2plpsqrmidresnoise/xp2016D2-127-YWU8.aif
<group>lokey=51 hikey=56 pitch_keycenter=54 pitch_keytrack=1
	<region> lovel=001 hivel=021 amp_velcurve_021=1 offset=479 end=665098 sample=../Sounds/Squares/2plpsqrmidresnoise/xp2016G#2-21-ATXU.aif
	<region> lovel=022 hivel=042 amp_velcurve_042=1 offset=568 end=665305 sample=../Sounds/Squares/2plpsqrmidresnoise/xp2016G#2-42-A1H5.aif
	<region> lovel=043 hivel=064 amp_velcurve_064=1 offset=535 end=664381 sample=../Sounds/Squares/2plpsqrmidresnoise/xp2016G#2-64-I73V.aif
	<region> lovel=065 hivel=085 amp_velcurve_085=1 offset=393 end=665047 sample=../Sounds/Squares/2plpsqrmidresnoise/xp2016G#2-85-KWMW.aif
	<region> lovel=086 hivel=106 amp_velcurve_106=1 offset=568 end=664957 sample=../Sounds/Squares/2plpsqrmidresnoise/xp2016G#2-106-J8VX.aif
	<region> lovel=107 hivel=127 amp_velcurve_127=1 offset=453 sample=../Sounds/Squares/2plpsqrmidresnoise/xp2016G#2-127-EZCP.aif
<group>lokey=57 hikey=62 pitch_keycenter=60 pitch_keytrack=1
	<region> lovel=001 hivel=021 amp_velcurve_021=1 offset=468 end=666225 sample=../Sounds/Squares/2plpsqrmidresnoise/xp2016D3-21-RXQ7.aif
	<region> lovel=022 hivel=042 amp_velcurve_042=1 offset=560 sample=../Sounds/Squares/2plpsqrmidresnoise/xp2016D3-42-G9V8.aif
	<region> lovel=043 hivel=064 amp_velcurve_064=1 offset=446 end=664977 sample=../Sounds/Squares/2plpsqrmidresnoise/xp2016D3-64-BE7H.aif
	<region> lovel=065 hivel=085 amp_velcurve_085=1 offset=523 end=664536 sample=../Sounds/Squares/2plpsqrmidresnoise/xp2016D3-85-47M5.aif
	<region> lovel=086 hivel=106 amp_velcurve_106=1 offset=416 end=663935 sample=../Sounds/Squares/2plpsqrmidresnoise/xp2016D3-106-6VO2.aif
	<region> lovel=107 hivel=127 amp_velcurve_127=1 offset=478 end=665096 sample=../Sounds/Squares/2plpsqrmidresnoise/xp2016D3-127-H3GN.aif
<group>lokey=63 hikey=68 pitch_keycenter=66 pitch_keytrack=1
	<region> lovel=001 hivel=021 amp_velcurve_021=1 offset=330 sample=../Sounds/Squares/2plpsqrmidresnoise/xp2016G#3-21-RM14.aif
	<region> lovel=022 hivel=042 amp_velcurve_042=1 offset=989 end=663797 sample=../Sounds/Squares/2plpsqrmidresnoise/xp2016G#3-42-03CZ.aif
	<region> lovel=043 hivel=064 amp_velcurve_064=1 offset=502 sample=../Sounds/Squares/2plpsqrmidresnoise/xp2016G#3-64-OR5Q.aif
	<region> lovel=065 hivel=085 amp_velcurve_085=1 offset=534 end=664406 sample=../Sounds/Squares/2plpsqrmidresnoise/xp2016G#3-85-063Z.aif
	<region> lovel=086 hivel=106 amp_velcurve_106=1 offset=492 sample=../Sounds/Squares/2plpsqrmidresnoise/xp2016G#3-106-FY1L.aif
	<region> lovel=107 hivel=127 amp_velcurve_127=1 offset=492 sample=../Sounds/Squares/2plpsqrmidresnoise/xp2016G#3-127-FBGH.aif
<group>lokey=69 hikey=74 pitch_keycenter=72 pitch_keytrack=1
	<region> lovel=001 hivel=021 amp_velcurve_021=1 offset=544 end=664044 sample=../Sounds/Squares/2plpsqrmidresnoise/xp2016D4-21-467K.aif
	<region> lovel=022 hivel=042 amp_velcurve_042=1 offset=607 end=664401 sample=../Sounds/Squares/2plpsqrmidresnoise/xp2016D4-42-OXC6.aif
	<region> lovel=043 hivel=064 amp_velcurve_064=1 offset=424 end=664949 sample=../Sounds/Squares/2plpsqrmidresnoise/xp2016D4-64-8WC7.aif
	<region> lovel=065 hivel=085 amp_velcurve_085=1 offset=597 end=663919 sample=../Sounds/Squares/2plpsqrmidresnoise/xp2016D4-85-SCDG.aif
	<region> lovel=086 hivel=106 amp_velcurve_106=1 offset=462 sample=../Sounds/Squares/2plpsqrmidresnoise/xp2016D4-106-KNPJ.aif
	<region> lovel=107 hivel=127 amp_velcurve_127=1 offset=412 sample=../Sounds/Squares/2plpsqrmidresnoise/xp2016D4-127-ZRAO.aif
<group>lokey=75 hikey=80 pitch_keycenter=78 pitch_keytrack=1
	<region> lovel=001 hivel=021 amp_velcurve_021=1 offset=360 end=663285 sample=../Sounds/Squares/2plpsqrmidresnoise/xp2016G#4-21-HQAS.aif
	<region> lovel=022 hivel=042 amp_velcurve_042=1 offset=524 end=663752 sample=../Sounds/Squares/2plpsqrmidresnoise/xp2016G#4-42-4Z7B.aif
	<region> lovel=043 hivel=064 amp_velcurve_064=1 offset=408 end=663999 sample=../Sounds/Squares/2plpsqrmidresnoise/xp2016G#4-64-CAOS.aif
	<region> lovel=065 hivel=085 amp_velcurve_085=1 offset=390 sample=../Sounds/Squares/2plpsqrmidresnoise/xp2016G#4-85-Y512.aif
	<region> lovel=086 hivel=106 amp_velcurve_106=1 offset=571 end=663785 sample=../Sounds/Squares/2plpsqrmidresnoise/xp2016G#4-106-QYNK.aif
	<region> lovel=107 hivel=127 amp_velcurve_127=1 offset=337 sample=../Sounds/Squares/2plpsqrmidresnoise/xp2016G#4-127-KWO8.aif
<group>lokey=81 hikey=86 pitch_keycenter=84 pitch_keytrack=1
	<region> lovel=001 hivel=021 amp_velcurve_021=1 offset=418 sample=../Sounds/Squares/2plpsqrmidresnoise/xp2016D5-21-PLGT.aif
	<region> lovel=022 hivel=042 amp_velcurve_042=1 offset=511 sample=../Sounds/Squares/2plpsqrmidresnoise/xp2016D5-42-1UN0.aif
	<region> lovel=043 hivel=064 amp_velcurve_064=1 offset=570 sample=../Sounds/Squares/2plpsqrmidresnoise/xp2016D5-64-37JI.aif
	<region> lovel=065 hivel=085 amp_velcurve_085=1 offset=528 sample=../Sounds/Squares/2plpsqrmidresnoise/xp2016D5-85-8JG1.aif
	<region> lovel=086 hivel=106 amp_velcurve_106=1 offset=451 end=663129 sample=../Sounds/Squares/2plpsqrmidresnoise/xp2016D5-106-PZL3.aif
	<region> lovel=107 hivel=127 amp_velcurve_127=1 offset=507 end=663647 sample=../Sounds/Squares/2plpsqrmidresnoise/xp2016D5-127-Y1J3.aif
<group>lokey=87 hikey=92 pitch_keycenter=90 pitch_keytrack=1
	<region> lovel=001 hivel=021 amp_velcurve_021=1 offset=597 end=663416 sample=../Sounds/Squares/2plpsqrmidresnoise/xp2016G#5-21-3XK1.aif
	<region> lovel=022 hivel=042 amp_velcurve_042=1 offset=537 end=663157 sample=../Sounds/Squares/2plpsqrmidresnoise/xp2016G#5-42-12M6.aif
	<region> lovel=043 hivel=064 amp_velcurve_064=1 offset=378 sample=../Sounds/Squares/2plpsqrmidresnoise/xp2016G#5-64-0RPU.aif
	<region> lovel=065 hivel=085 amp_velcurve_085=1 offset=587 end=663288 sample=../Sounds/Squares/2plpsqrmidresnoise/xp2016G#5-85-SZFA.aif
	<region> lovel=086 hivel=106 amp_velcurve_106=1 offset=634 sample=../Sounds/Squares/2plpsqrmidresnoise/xp2016G#5-106-CE2R.aif
	<region> lovel=107 hivel=127 amp_velcurve_127=1 offset=437 end=663848 sample=../Sounds/Squares/2plpsqrmidresnoise/xp2016G#5-127-23U8.aif
<group>lokey=93 hikey=127 pitch_keycenter=96 pitch_keytrack=1
	<region> lovel=001 hivel=021 amp_velcurve_021=1 offset=481 end=663018 sample=../Sounds/Squares/2plpsqrmidresnoise/xp2016G8-21-D97A.aif
	<region> lovel=022 hivel=042 amp_velcurve_042=1 offset=469 end=663073 sample=../Sounds/Squares/2plpsqrmidresnoise/xp2016G8-42-3N8P.aif
	<region> lovel=043 hivel=064 amp_velcurve_064=1 offset=617 end=663633 sample=../Sounds/Squares/2plpsqrmidresnoise/xp2016G8-64-TOIL.aif
	<region> lovel=065 hivel=085 amp_velcurve_085=1 offset=431 end=663596 sample=../Sounds/Squares/2plpsqrmidresnoise/xp2016G8-85-8LA5.aif
	<region> lovel=086 hivel=106 amp_velcurve_106=1 offset=554 end=662865 sample=../Sounds/Squares/2plpsqrmidresnoise/xp2016G8-106-8L8O.aif
	<region> lovel=107 hivel=127 amp_velcurve_127=1 offset=504 end=663876 sample=../Sounds/Squares/2plpsqrmidresnoise/xp2016G8-127-IT51.aif
